<?xml version="1.0" encoding="utf-8"?>
<!-- Generator: Adobe Illustrator 21.0.0, SVG Export Plug-In . SVG Version: 6.00 Build 0)  -->
<svg version="1.1" id="Layer_1" xmlns="http://www.w3.org/2000/svg" xmlns:xlink="http://www.w3.org/1999/xlink" x="0px" y="0px"
	 viewBox="0 0 512 512" style="enable-background:new 0 0 512 512;" xml:space="preserve">
<g>
	<path d="M467.7,64l-6.4-6.4c-36.1-40.3-89.2-53.1-89.2-53.1c-63.7-19.1-163.5,23.4-252.6,110.4C45.2,185,0.6,269.9,0.6,333.6
		c0,8.5,2.2,17,2.2,25.5c4.2,42.5,31.8,87.1,55.2,108.3c29.8,29.7,67.9,44.6,110.4,44.6c70.1,0,152.9-40.4,229.3-112.5
		C516.6,282.7,546.2,144.7,467.7,64z M128,376.1c0-27.6,29.7-84.9,93.4-148.6c61.6-61.5,125.3-78.5,155-84.9
		c-14.8,40.4-46.7,89.2-93.4,135.9c-44.6,42.5-95.5,76.4-140.2,93.4C138.6,374,132.2,374,128,376.1z M149.2,144.7
		C219.3,74.6,293.6,40.6,340.3,40.6c14.8,0,27.6,4.3,36.1,12.8c8.5,8.5,12.8,25.5,10.6,44.6c-25.5,2.1-112.5,16.9-195.3,99.8
		c-53.1,53.1-108.3,129.5-104,182.5c-12.8,0-25.5-4.2-31.8-10.6c-4.3-4.2-8.5-10.6-10.6-19.1c0,0-2.2-10.6-2.2-17
		C45.2,280.5,85.5,206.2,149.2,144.7z M367.9,367.6C266,469.5,149.2,497.1,87.7,437.7c-4.3-4.3-8.5-8.5-12.8-14.9
		c4.2,2.2,10.6,2.2,17,2.2c19.1,0,42.5-4.2,65.8-12.8c51-19.1,106.2-55.2,155-104C387,233.8,429.5,148.9,429.5,87.4l2.2,2.1l6.4,4.2
		C497.4,155.3,467.7,269.9,367.9,367.6z"/>
</g>
</svg>
